<svg xmlns="http://www.w3.org/2000/svg" width="881.556" height="435.606" viewBox="0 0 881.556 435.606">
  <g id="books" transform="translate(0 -0.001)">
    <path id="Path_1" data-name="Path 1" d="M666.907,666.039a21.283,21.283,0,1,1,0-42.566H983.042A18.505,18.505,0,0,0,966.8,613.82H338.413a30.936,30.936,0,0,0,0,61.872H966.8a18.506,18.506,0,0,0,16.237-9.653Z" transform="translate(-174.246 -240.086)" fill="#d563ff"/>
    <path id="Path_2" data-name="Path 2" d="M983.462,635.2H682.891a1.737,1.737,0,0,1,0-3.475H983.462a1.737,1.737,0,0,1,0,3.475Z" transform="translate(-174.246 -240.086)" fill="#ccc"/>
    <path id="Path_3" data-name="Path 3" d="M983.462,646.493H682.891a1.737,1.737,0,1,1,0-3.475H983.462a1.737,1.737,0,0,1,0,3.475Z" transform="translate(-174.246 -240.086)" fill="#ccc"/>
    <path id="Path_4" data-name="Path 4" d="M983.462,657.787H682.891a1.737,1.737,0,0,1,0-3.475H983.462a1.737,1.737,0,0,1,0,3.475Z" transform="translate(-174.246 -240.086)" fill="#ccc"/>
    <path id="Path_5" data-name="Path 5" d="M580.461,606.1a21.285,21.285,0,0,1,0-42.566H892.384a18.224,18.224,0,0,0-16.021-9.653H256.343a30.939,30.939,0,0,0,0,61.872h620.02a18.224,18.224,0,0,0,16.021-9.653Z" transform="translate(-144.199 -240.086)" fill="#e8bab0"/>
    <path id="Path_6" data-name="Path 6" d="M901.8,575.26H601.233a1.737,1.737,0,0,1,0-3.475H901.8a1.737,1.737,0,1,1,0,3.475Z" transform="translate(-166.716 -236.548)" fill="#ccc"/>
    <path id="Path_7" data-name="Path 7" d="M901.8,586.553H601.233a1.737,1.737,0,1,1,0-3.475H901.8a1.737,1.737,0,1,1,0,3.475Z" transform="translate(-166.716 -236.946)" fill="#ccc"/>
    <path id="Path_8" data-name="Path 8" d="M901.8,597.846H601.233a1.737,1.737,0,0,1,0-3.475H901.8a1.737,1.737,0,1,1,0,3.475Z" transform="translate(-166.716 -240.086)" fill="#ccc"/>
    <path id="Path_9" data-name="Path 9" d="M503.591,544.159a21.283,21.283,0,0,1,0-42.566H819.726a18.506,18.506,0,0,0-16.237-9.653H175.1a30.936,30.936,0,0,0,0,61.872H803.489a18.505,18.505,0,0,0,16.237-9.653Z" transform="translate(-144.199 -235.149)" fill="#e0c414"/>
    <path id="Path_10" data-name="Path 10" d="M820.146,513.32H519.575a1.737,1.737,0,1,1,0-3.475H820.146a1.737,1.737,0,1,1,0,3.475Z" transform="translate(-162.678 -234.366)" fill="#ccc"/>
    <path id="Path_11" data-name="Path 11" d="M820.146,524.613H519.575a1.737,1.737,0,1,1,0-3.475H820.146a1.737,1.737,0,1,1,0,3.475Z" transform="translate(-162.678 -234.764)" fill="#ccc"/>
    <path id="Path_12" data-name="Path 12" d="M820.146,535.906H519.575a1.737,1.737,0,1,1,0-3.475H820.146a1.737,1.737,0,1,1,0,3.475Z" transform="translate(-162.678 -235.162)" fill="#ccc"/>
    <path id="Path_13" data-name="Path 13" d="M827.087,412.022a6.5,6.5,0,0,1-6.476-6.075l-.965-14.728a6.5,6.5,0,0,1,6.061-6.911l115.387-7.557a13.88,13.88,0,0,1,1.814,27.7l-115.387,7.556Q827.3,412.021,827.087,412.022Z" transform="translate(-174.246 -230.087)" fill="#9d470d"/>
    <path id="Path_14" data-name="Path 14" d="M849.84,413.921a6.508,6.508,0,0,1-6.493-6.258l-.822-22a6.5,6.5,0,0,1,6.253-6.738l94.886-3.546a6.5,6.5,0,0,1,6.738,6.253l.822,22a6.5,6.5,0,0,1-6.253,6.738l-94.886,3.546C850,413.919,849.921,413.921,849.84,413.921Z" transform="translate(-174.246 -230.081)" fill="#ff748c"/>
    <path id="Path_15" data-name="Path 15" d="M961.031,616.7h-14.76a6.507,6.507,0,0,1-6.5-6.5V487.187a6.507,6.507,0,0,1,6.5-6.5h14.76a6.507,6.507,0,0,1,6.5,6.5V610.2a6.507,6.507,0,0,1-6.5,6.5Z" transform="translate(-174.246 -240.086)" fill="rgba(7,4,82,0.69)"/>
    <path id="Path_16" data-name="Path 16" d="M895.518,551.677,882.9,544.026a6.507,6.507,0,0,1-2.189-8.928l63.764-105.2a6.507,6.507,0,0,1,8.928-2.189l12.622,7.651a6.507,6.507,0,0,1,2.189,8.928l-63.764,105.2a6.507,6.507,0,0,1-8.928,2.189Z" transform="translate(-174.246 -234.121)" fill="#535187"/>
    <path id="Path_23" data-name="Path 23" d="M51,0A51,51,0,1,1,0,51,51,51,0,0,1,51,0Z" transform="translate(713.368 26.001)" fill="#9d470d"/>
    <path id="Path_17" data-name="Path 17" d="M911.008,318.722a12.1,12.1,0,0,1-4.417-2.593,8.133,8.133,0,0,1-2.378-6.439,5.472,5.472,0,0,1,2.433-4.211c1.824-1.17,4.263-1.173,6.747-.079l-.094-19.91,2-.01.111,23.406-1.541-.969c-1.787-1.122-4.339-1.912-6.142-.755a3.514,3.514,0,0,0-1.522,2.719,6.146,6.146,0,0,0,1.768,4.8c2.208,2.109,5.43,2.769,9.1,3.359l-.317,1.975a32.961,32.961,0,0,1-5.752-1.294Z" transform="translate(-174.246 -224.308)" fill="#2f2e41"/>
    <rect id="Rectangle_1" data-name="Rectangle 1" width="2" height="10.772" transform="translate(718.176 62.161) rotate(-82.477)" fill="#2f2e41"/>
    <rect id="Rectangle_2" data-name="Rectangle 2" width="2" height="10.772" transform="translate(751.884 66.612) rotate(-82.477)" fill="#2f2e41"/>
    <path id="Path_18" data-name="Path 18" d="M981.2,520.192h-86a8.51,8.51,0,0,1-8.5-8.5l18-138.064a8.49,8.49,0,0,1,8.5-8.436h30.52a46.032,46.032,0,0,1,45.98,45.98v100.52A8.51,8.51,0,0,1,981.2,520.192Z" transform="translate(-174.246 -231.808)" fill="#ff748c"/>
    <path id="Path_19" data-name="Path 19" d="M1055.19,465.789a6.511,6.511,0,0,1-.968,7.007l-9.649,11.169a6.5,6.5,0,0,1-9.168.669l-87.5-75.6a13.879,13.879,0,1,1,18.148-21.005l87.5,75.6a6.463,6.463,0,0,1,1.637,2.161Z" transform="translate(-174.246 -231.54)" fill="#9d470d"/>
    <path id="Path_20" data-name="Path 20" d="M1035.88,440.841a6.51,6.51,0,0,1-.967,7.007l-16.482,19.077a6.507,6.507,0,0,1-9.168.669l-71.851-62.076a6.5,6.5,0,0,1-.669-9.168l16.481-19.077a6.5,6.5,0,0,1,9.168-.669l71.851,62.076a6.469,6.469,0,0,1,1.637,2.161Z" transform="translate(-174.246 -230.964)" fill="#ff748c"/>
    <path id="Path_21" data-name="Path 21" d="M939.568,271.061c-6.818-5.642-15.931-.306-23.641-1.063-7.376-.725-13.313-7.216-14.931-14.2-1.888-8.15,2.2-16.428,8.367-21.649,6.75-5.718,15.813-7.495,24.449-6.625,9.9,1,19.018,5.429,27.228,10.843a121.851,121.851,0,0,1,21.783,17.759c5.871,6.241,10.886,13.718,12.6,22.234,1.561,7.739.645,16.366-3.821,23.032a24.206,24.206,0,0,1-9.324,7.984c-3.9,2.008-8.073,3.47-11.846,5.728-5.7,3.414-11.179,10.373-9.237,17.47a9.793,9.793,0,0,0,2.305,4.147c1.318,1.408,3.609-.529,2.288-1.941-2.32-2.479-2.295-5.845-1.141-8.88a16.272,16.272,0,0,1,7.081-8.09c3.949-2.358,8.33-3.851,12.382-6.008a27.022,27.022,0,0,0,9.754-8.4c4.768-6.9,6.065-15.784,4.8-23.957-1.37-8.844-6.079-16.815-11.918-23.458-6.355-7.23-14.107-13.305-22.013-18.745-8.482-5.837-17.824-10.73-28.09-12.369-8.9-1.421-18.493-.26-26.156,4.721-7.153,4.649-12.557,12.515-12.944,21.2A22.236,22.236,0,0,0,908.3,270.53a19.1,19.1,0,0,0,11.458,2.426c4.256-.354,8.5-1.739,12.791-1.459a8.94,8.94,0,0,1,5.307,2.028c1.49,1.233,3.19-1.242,1.713-2.464Z" transform="translate(-174.246 -224.308)" fill="#2f2e41"/>
    <path id="Path_22" data-name="Path 22" d="M879.6,536.876q.027-.169.064-.338a6.456,6.456,0,0,1,2.831-4.091l12.4-8a6.508,6.508,0,0,1,8.986,1.939l38.261,59.32a6.5,6.5,0,0,1-1.939,8.986l-12.4,8a6.508,6.508,0,0,1-8.986-1.939l-38.261-59.32a6.453,6.453,0,0,1-.955-4.556Z" transform="translate(-174.246 -237.026)" fill="#535187"/>
  </g>
</svg>
