<svg xmlns="http://www.w3.org/2000/svg" width="1058.915" height="506.03" viewBox="0 0 1058.915 506.03">
  <g id="Group_1" data-name="Group 1" transform="translate(0 0)">
    <path id="Path_1" data-name="Path 1" d="M990.425,462.251h-682a9.01,9.01,0,0,1-9-9v-266a9.01,9.01,0,0,1,9-9h682a9.01,9.01,0,0,1,9,9v266a9.01,9.01,0,0,1-9,9Zm-682-282a7.008,7.008,0,0,0-7,7v266a7.008,7.008,0,0,0,7,7h682a7.008,7.008,0,0,0,7-7v-266a7.008,7.008,0,0,0-7-7Z" transform="translate(-32.868 -178.251)" fill="#3f3d56"/>
    <path id="Path_2" data-name="Path 2" d="M626.861,350.476H577.053c-3.115-27.707,3.758-48.359,0-59.769h49.808a311.809,311.809,0,0,0,0,59.769Z" transform="translate(-70.418 -186.961)" fill="#63ffc6"/>
    <path id="Path_3" data-name="Path 3" d="M158.861,603.476H109.053c-3.115-27.707,3.758-48.359,0-59.769h49.808a311.811,311.811,0,0,0,0,59.769Z" transform="translate(-108.217 -206.558)" fill="#63ffc6"/>
    <path id="Path_4" data-name="Path 4" d="M929.861,405.476H880.053c-3.115-27.707,3.758-48.359,0-59.769h49.808a311.8,311.8,0,0,0,0,59.769Z" transform="translate(-45.946 -191.221)" fill="#ffb1c1"/>
    <path id="Path_5" data-name="Path 5" d="M370.634,376.04H320.826c1.868-22.982,7.889-44.442,0-59.769h49.808Q384.7,346.155,370.634,376.04Z" transform="translate(-90.931 -188.941)" fill="#e6e6e6"/>
    <path id="Path_6" data-name="Path 6" d="M410.634,453.04H360.826c1.868-22.982,7.889-44.442,0-59.769h49.808Q424.7,423.155,410.634,453.04Z" transform="translate(-87.678 -194.906)" fill="#e6e6e6"/>
    <path id="Path_7" data-name="Path 7" d="M850.634,312.04H800.826c1.868-22.982,7.889-44.442,0-59.769h49.808Q864.7,282.155,850.634,312.04Z" transform="translate(-51.903 -178.251)" fill="#6c63ff"/>
    <path id="Path_8" data-name="Path 8" d="M703.634,390.04H653.826c1.868-22.982,7.889-44.442,0-59.769h49.808Q717.7,360.155,703.634,390.04Z" transform="translate(-63.855 -190.026)" fill="#e6e6e6"/>
    <path id="Path_9" data-name="Path 9" d="M421.549,325.125h49.808c3.115-22.986-3.758-44.445,0-59.769H421.549Q407.482,295.241,421.549,325.125Z" transform="translate(-83.29 -184.998)" fill="#3f3d56"/>
    <path id="Path_10" data-name="Path 10" d="M455.425,215.251h-93a2,2,0,0,1,0-4h93a2,2,0,0,1,0,4Z" transform="translate(-86.782 -178.251)" fill="#3f3d56"/>
    <path id="Path_11" data-name="Path 11" d="M696.425,215.251h-93a2,2,0,0,1,0-4h93a2,2,0,0,1,0,4Z" transform="translate(-66.299 -178.251)" fill="#3f3d56"/>
    <path id="Path_12" data-name="Path 12" d="M937.425,215.251h-93a2,2,0,0,1,0-4h93a2,2,0,0,1,0,4Z" transform="translate(-45.817 -178.251)" fill="#3f3d56"/>
    <rect id="Rectangle_1" data-name="Rectangle 1" width="2" height="282" transform="translate(452.465 1)" fill="#3f3d56"/>
    <rect id="Rectangle_2" data-name="Rectangle 2" width="2" height="282" transform="translate(711.965 1)" fill="#3f3d56"/>
    <circle id="Ellipse_1" data-name="Ellipse 1" cx="53.519" cy="53.519" r="53.519" transform="translate(105.1 141.358)" fill="#6c63ff"/>
    <path id="Path_13" data-name="Path 13" d="M258.4,721.749H243.645a6.507,6.507,0,0,1-6.5-6.5V592.235a6.508,6.508,0,0,1,6.5-6.5H258.4a6.508,6.508,0,0,1,6.5,6.5V715.249a6.507,6.507,0,0,1-6.5,6.5Z" transform="translate(-108.217 -215.719)" fill="#6c63ff"/>
    <path id="Path_14" data-name="Path 14" d="M287.6,721.749h-14.76a6.507,6.507,0,0,1-6.5-6.5V592.235a6.508,6.508,0,0,1,6.5-6.5H287.6a6.508,6.508,0,0,1,6.5,6.5V715.249a6.508,6.508,0,0,1-6.5,6.5Z" transform="translate(-108.217 -215.719)" fill="#6c63ff"/>
    <path id="Path_15" data-name="Path 15" d="M149.42,568.175a6.527,6.527,0,0,1-2-.317,6.456,6.456,0,0,1-3.789-3.225L136.9,551.494a6.5,6.5,0,0,1,2.825-8.747l109.5-56.048a6.5,6.5,0,0,1,8.748,2.825l6.725,13.139a6.5,6.5,0,0,1-2.824,8.747l-109.5,56.048A6.48,6.48,0,0,1,149.42,568.175Z" transform="translate(-108.217 -203.245)" fill="#6c63ff"/>
    <path id="Path_16" data-name="Path 16" d="M299.782,511.121a6.449,6.449,0,0,1-4.215-1.561l-11.217-9.592a6.509,6.509,0,0,1-.716-9.165l79.949-93.492a6.506,6.506,0,0,1,9.164-.715h0l11.217,9.593a6.5,6.5,0,0,1,.715,9.164l-79.948,93.493A6.461,6.461,0,0,1,300.3,511.1C300.125,511.115,299.953,511.121,299.782,511.121Z" transform="translate(-93.32 -197.255)" fill="#6c63ff"/>
    <path id="Path_17" data-name="Path 17" d="M268.754,332.877c-1.742-17.359-13.15-33.959-30.567-38.477a37.3,37.3,0,0,0-25.474,2.311,33.729,33.729,0,0,0-15.956,17.171,47.98,47.98,0,0,0-3.4,23.311,61.339,61.339,0,0,0,8.117,24.556c4.724,8.329,10.867,15.774,17.315,22.815,6.57,7.173,14,13.773,19.53,21.827,4.9,7.142,8.845,16.843,4.014,25.063a18.511,18.511,0,0,1-18.183,8.494,15.414,15.414,0,0,1-4.947-1.642c-1.7-.909-3.22,1.68-1.514,2.59,6.47,3.454,14.515,2.672,20.627-1.213,7.045-4.477,10.19-12.379,8.87-20.548-1.506-9.313-8-17.31-14.235-24.013-6.513-7-13.335-13.689-19.368-21.128-5.959-7.348-11.28-15.459-14.47-24.418a51.061,51.061,0,0,1-2.61-23.388c.95-7.537,3.881-15.006,9.139-20.582a31.115,31.115,0,0,1,22.385-9.446,35.2,35.2,0,0,1,23.59,8.673,42.746,42.746,0,0,1,13.028,21.719,44.016,44.016,0,0,1,1.11,6.324c.191,1.9,3.193,1.923,3,0Z" transform="translate(-108.217 -189.19)" fill="#2f2e41"/>
    <path id="Path_18" data-name="Path 18" d="M257.478,332.469a5.5,5.5,0,0,1-1.718-10.725l14.244-4.7a5.5,5.5,0,0,1,3.449,10.444l-14.243,4.7A5.5,5.5,0,0,1,257.478,332.469Z" transform="translate(-108.217 -188.084)" fill="#2f2e41"/>
    <path id="Path_19" data-name="Path 19" d="M353.642,607.751H187.161a6.486,6.486,0,0,1-5.629-9.75l83.241-144.177a6.627,6.627,0,0,1,1.045-1.367l.016-.016.007-.007a6.386,6.386,0,0,1,3.339-1.748c.084-.016.168-.03.253-.042a6.616,6.616,0,0,1,.968-.07h0a6.433,6.433,0,0,1,5.629,3.25L359.271,598a6.5,6.5,0,0,1-5.629,9.75Z" transform="translate(-108.217 -204.662)" fill="#2f2e41"/>
    <path id="Path_20" data-name="Path 20" d="M306.662,395.2l-.056-2c3.721-.1,7-.337,9.466-2.138a6.148,6.148,0,0,0,2.381-4.528,3.515,3.515,0,0,0-1.153-2.895c-1.636-1.383-4.268-.936-6.188-.055l-1.655.759,3.173-23.19,1.981.271-2.7,19.727c2.608-.767,5.023-.437,6.678.961a5.471,5.471,0,0,1,1.86,4.492,8.133,8.133,0,0,1-3.2,6.073C314.085,394.988,309.97,395.1,306.662,395.2Z" transform="translate(-92.802 -191.702)" fill="#2f2e41"/>
    <rect id="Rectangle_3" data-name="Rectangle 3" width="10.771" height="2" transform="translate(182.195 172.078)" fill="#2f2e41"/>
    <path id="Path_21" data-name="Path 21" d="M1033.76,519.982,930.492,453.139a6.5,6.5,0,0,1-1.925-8.988l8.02-12.391a6.508,6.508,0,0,1,8.988-1.926l103.27,66.843a6.509,6.509,0,0,1,1.925,8.989l-8.02,12.391a6.506,6.506,0,0,1-8.989,1.925Z" transform="translate(-32.868 -199.053)" fill="#63ffc6"/>
    <path id="Path_22" data-name="Path 22" d="M1034.06,519.154l-43.166-24.1a6,6,0,0,1-2.446-7.912l10-20.092a6,6,0,0,1,9.036-2.077l41.126,31.721a6.011,6.011,0,0,1,1.78,8.3l-8.022,12.393A6.011,6.011,0,0,1,1034.06,519.154Z" transform="translate(-32.868 -200.209)" fill="#ccc"/>
    <circle id="Ellipse_2" data-name="Ellipse 2" cx="53.519" cy="53.519" r="53.519" transform="translate(951.877 142.99)" fill="#63ffc6"/>
    <path id="Path_23" data-name="Path 23" d="M1040.2,715.034V592.019a6.507,6.507,0,0,1,6.5-6.5h14.76a6.508,6.508,0,0,1,6.5,6.5V715.034a6.508,6.508,0,0,1-6.5,6.5H1046.7a6.507,6.507,0,0,1-6.5-6.5Z" transform="translate(-32.868 -215.719)" fill="#2f2e41"/>
    <path id="Path_24" data-name="Path 24" d="M1011,715.034V592.019a6.507,6.507,0,0,1,6.5-6.5h14.76a6.508,6.508,0,0,1,6.5,6.5V715.034a6.507,6.507,0,0,1-6.5,6.5H1017.5a6.507,6.507,0,0,1-6.5-6.5Z" transform="translate(-32.868 -215.719)" fill="#2f2e41"/>
    <path id="Path_25" data-name="Path 25" d="M998.841,599.481V457.005a6.508,6.508,0,0,1,6.5-6.5h37.686a35.918,35.918,0,0,1,35.877,35.877v113.1a6.508,6.508,0,0,1-6.5,6.5h-67.062a6.507,6.507,0,0,1-6.5-6.5Z" transform="translate(-32.868 -204.54)" fill="#ccc"/>
    <path id="Path_26" data-name="Path 26" d="M991.549,403.057l.056-2c-3.721-.1-7-.337-9.466-2.138a6.148,6.148,0,0,1-2.382-4.528,3.514,3.514,0,0,1,1.153-2.895c1.636-1.383,4.269-.936,6.188-.055l1.655.759-3.173-23.19-1.981.271,2.7,19.727c-2.608-.767-5.023-.437-6.678.961a5.471,5.471,0,0,0-1.86,4.492,8.132,8.132,0,0,0,3.2,6.073C984.126,402.849,988.241,402.964,991.549,403.057Z" transform="translate(-32.868 -192.28)" fill="#2f2e41"/>
    <rect id="Rectangle_4" data-name="Rectangle 4" width="10.771" height="2" transform="translate(964.159 179.396)" fill="#2f2e41"/>
    <path id="Path_27" data-name="Path 27" d="M973.3,596.4l-13.038-6.919a6.509,6.509,0,0,1-2.695-8.789l57.665-108.661a6.509,6.509,0,0,1,8.789-2.694l13.037,6.919a6.508,6.508,0,0,1,2.7,8.788L982.091,593.7a6.49,6.49,0,0,1-8.789,2.7Z" transform="translate(-32.868 -204.468)" fill="#63ffc6"/>
    <path id="Path_28" data-name="Path 28" d="M1043.91,484.808,1018.627,529.9a6,6,0,0,1-7.671,3.121l-20.882-8.226a6,6,0,0,1-2.851-8.822l28.047-45.714a6.011,6.011,0,0,1,8.11-2.49l18.04,8.92a6.011,6.011,0,0,1,2.49,8.12Z" transform="translate(-32.868 -200.931)" fill="#ccc"/>
    <path id="Path_29" data-name="Path 29" d="M1023.32,353.046c-9.176,1.434-20.282,2.9-27.182-4.821a10.891,10.891,0,0,1-2.5-10.914c1.331-3.794,4.762-6.685,8.361-8.255,5.382-2.348,11.511-2.2,17.261-2.138a1.5,1.5,0,0,0,0-3c-5.869-.066-12.01-.122-17.567,2.042-4.373,1.7-8.423,4.862-10.4,9.209-4.34,9.53,3.675,18.836,12.733,21.156,6.609,1.693,13.471.649,20.093-.386,1.9-.3,1.094-3.189-.8-2.893Z" transform="translate(-32.868 -188.947)" fill="#2f2e41"/>
    <path id="Path_30" data-name="Path 30" d="M897.549,498.125h49.808c3.115-22.986-3.758-44.445,0-59.769H897.549Q883.482,468.241,897.549,498.125Z" transform="translate(-32.868 -198.398)" fill="#3f3d56"/>
  </g>
</svg>
