<svg xmlns="http://www.w3.org/2000/svg" width="1157.6" height="692.639" viewBox="0 0 1157.6 692.639">
  <g id="thinker" transform="translate(463.333 -4)">
    <rect id="Rectangle_1" data-name="Rectangle 1" width="1.672" height="111.196" transform="translate(508.429 71.206) rotate(-46.407)" fill="#85203b"/>
    <path id="Path_1" data-name="Path 1" d="M502.161,143.982l-2.258.125.681,10.2-11.141-.123-.024,2.073,13.569.148Z" transform="translate(86.941 -8.528)" fill="#85203b"/>
    <path id="Path_2" data-name="Path 2" d="M427.766,76.327l-.018,1.683-8.229-.1.5,8.282-1.668.1-.609-10.088Z" transform="translate(89.469 -7)" fill="#85203b"/>
    <circle id="Ellipse_1" data-name="Ellipse 1" cx="9.193" cy="9.193" r="9.193" transform="translate(540.59 99.624)" fill="#46c3db"/>
    <rect id="Rectangle_2" data-name="Rectangle 2" width="115.196" height="1.672" transform="translate(152.503 143.805) rotate(-43.593)" fill="#3d5af1"/>
    <path id="Path_3" data-name="Path 3" d="M103.815,157.312l10.517-.158-.02-2.225-8.635.132.528-10.945-1.75-.134Z" transform="translate(48.688 -12.296)" fill="#3d5af1"/>
    <path id="Path_4" data-name="Path 4" d="M191.053,76.206l-.947,14.92-2.589-.15.78-12.249-12.779.147-.028-2.49Z" transform="translate(45.95 -11.832)" fill="#3d5af1"/>
    <circle id="Ellipse_2" data-name="Ellipse 2" cx="9.193" cy="9.193" r="9.193" transform="translate(184.616 96.624)" fill="#6e3b3b"/>
    <path id="Path_5" data-name="Path 5" d="M669.364,325.543H530.636a7.53,7.53,0,0,1-7.521-7.521v-175.5A7.53,7.53,0,0,1,530.636,135H669.364a7.53,7.53,0,0,1,7.521,7.521v175.5a7.53,7.53,0,0,1-7.521,7.522ZM530.636,136.671a5.857,5.857,0,0,0-5.85,5.85v175.5a5.857,5.857,0,0,0,5.85,5.85H669.364a5.857,5.857,0,0,0,5.85-5.85v-175.5a5.857,5.857,0,0,0-5.85-5.85Z" transform="translate(-231.408 -131)" fill="#43dde6"/>
    <path id="Path_6" data-name="Path 6" d="M588.46,219.358H557.923a3.765,3.765,0,0,1-3.761-3.761V179.562a3.765,3.765,0,0,1,3.761-3.761H588.46a3.765,3.765,0,0,1,3.761,3.761V215.6A3.765,3.765,0,0,1,588.46,219.358Z" transform="translate(-236.491 -135)" fill="#9e579d"/>
    <path id="Path_7" data-name="Path 7" d="M647.8,236.073H617.259a3.765,3.765,0,0,1-3.761-3.761V196.276a3.765,3.765,0,0,1,3.761-3.761H647.8a3.765,3.765,0,0,1,3.761,3.761v36.036A3.765,3.765,0,0,1,647.8,236.073Z" transform="translate(-230.731 -135)" fill="#ccc"/>
    <path id="Path_8" data-name="Path 8" d="M600.16,287.051H569.623a3.765,3.765,0,0,1-3.761-3.761V247.255a3.765,3.765,0,0,1,3.761-3.761H600.16a3.765,3.765,0,0,1,3.761,3.761v36.036A3.765,3.765,0,0,1,600.16,287.051Z" transform="translate(-235.356 -140.963)" fill="#ff6584"/>
    <path id="Path_9" data-name="Path 9" d="M893.279,506H754.55a7.53,7.53,0,0,1-7.521-7.521v-175.5a7.53,7.53,0,0,1,7.521-7.521H893.279a7.53,7.53,0,0,1,7.521,7.522v175.5A7.53,7.53,0,0,1,893.279,506ZM754.55,317.129a5.857,5.857,0,0,0-5.85,5.85v175.5a5.857,5.857,0,0,0,5.85,5.85H893.279a5.856,5.856,0,0,0,5.85-5.85v-175.5a5.857,5.857,0,0,0-5.85-5.85Z" transform="translate(-206.533 -145.616)" fill="#43dde6"/>
    <path id="Path_10" data-name="Path 10" d="M847.732,354.318H800.1a3.343,3.343,0,0,1,0-6.686h47.636a3.343,3.343,0,0,1,0,6.686Z" transform="translate(-206.533 -144.376)" fill="#6c63ff"/>
    <path id="Path_11" data-name="Path 11" d="M871.132,386.075H776.7a3.343,3.343,0,0,1,0-6.686h94.436a3.343,3.343,0,0,1,0,6.686Z" transform="translate(-206.533 -145.499)" fill="#ccc"/>
    <path id="Path_12" data-name="Path 12" d="M871.132,403.625H776.7a3.343,3.343,0,0,1,0-6.686h94.436a3.343,3.343,0,0,1,0,6.686Z" transform="translate(-206.533 -146.12)" fill="#ccc"/>
    <path id="Path_13" data-name="Path 13" d="M871.132,421.175H776.7a3.343,3.343,0,0,1,0-6.686h94.436a3.343,3.343,0,0,1,0,6.686Z" transform="translate(-206.533 -146.741)" fill="#ccc"/>
    <path id="Path_14" data-name="Path 14" d="M871.132,438.725H776.7a3.343,3.343,0,0,1,0-6.686h94.436a3.343,3.343,0,0,1,0,6.686Z" transform="translate(-206.533 -147.361)" fill="#ccc"/>
    <path id="Path_15" data-name="Path 15" d="M871.132,456.275H776.7a3.343,3.343,0,0,1,0-6.686h94.436a3.343,3.343,0,0,1,0,6.686Z" transform="translate(-206.533 -147.982)" fill="#ccc"/>
    <path id="Path_16" data-name="Path 16" d="M871.132,473.825H776.7a3.343,3.343,0,0,1,0-6.686h94.436a3.343,3.343,0,0,1,0,6.686Z" transform="translate(-206.533 -148.603)" fill="#ccc"/>
    <path id="Path_17" data-name="Path 17" d="M445.45,506H306.721a7.53,7.53,0,0,1-7.521-7.521v-175.5a7.53,7.53,0,0,1,7.521-7.521H445.45a7.53,7.53,0,0,1,7.521,7.521v175.5A7.53,7.53,0,0,1,445.45,506ZM306.721,317.129a5.857,5.857,0,0,0-5.85,5.85v175.5a5.857,5.857,0,0,0,5.85,5.85H445.45a5.856,5.856,0,0,0,5.85-5.85v-175.5a5.857,5.857,0,0,0-5.85-5.85Z" transform="translate(-256.283 -145.616)" fill="#43dde6"/>
    <path id="Path_18" data-name="Path 18" d="M423.448,356.893H381.663a3.343,3.343,0,1,1,0-6.686h41.786a3.343,3.343,0,0,1,0,6.686Z" transform="translate(-254.025 -144.467)" fill="#3f3d56"/>
    <path id="Path_19" data-name="Path 19" d="M423.448,374.443H381.663a3.343,3.343,0,1,1,0-6.686h41.786a3.343,3.343,0,0,1,0,6.686Z" transform="translate(-254.025 -145.088)" fill="#3f3d56"/>
    <path id="Path_20" data-name="Path 20" d="M360.222,384.436H329.685a3.765,3.765,0,0,1-3.761-3.761V344.639a3.765,3.765,0,0,1,3.761-3.761h30.537a3.765,3.765,0,0,1,3.761,3.761v36.036a3.765,3.765,0,0,1-3.761,3.761Z" transform="translate(-258.925 -144.568)" fill="#6c63ff"/>
    <path id="Path_21" data-name="Path 21" d="M423.159,410.378H328.723a3.343,3.343,0,1,1,0-6.686h94.436a3.343,3.343,0,1,1,0,6.686Z" transform="translate(-256.299 -146.359)" fill="#ccc"/>
    <path id="Path_22" data-name="Path 22" d="M423.159,427.928H328.723a3.343,3.343,0,0,1,0-6.686h94.436a3.343,3.343,0,1,1,0,6.686Z" transform="translate(-256.299 -146.98)" fill="#ccc"/>
    <path id="Path_23" data-name="Path 23" d="M423.159,445.478H328.723a3.343,3.343,0,1,1,0-6.686h94.436a3.343,3.343,0,1,1,0,6.686Z" transform="translate(-256.299 -147.6)" fill="#ccc"/>
    <path id="Path_24" data-name="Path 24" d="M423.159,463.028H328.723a3.343,3.343,0,1,1,0-6.686h94.436a3.343,3.343,0,0,1,0,6.686Z" transform="translate(-256.299 -148.221)" fill="#ccc"/>
    <path id="Path_25" data-name="Path 25" d="M423.159,480.578H328.723a3.343,3.343,0,1,1,0-6.686h94.436a3.343,3.343,0,1,1,0,6.686Z" transform="translate(-256.299 -148.842)" fill="#ccc"/>
    <path id="Path_26" data-name="Path 26" d="M497.895,607.719V571.683a3.765,3.765,0,0,1,3.761-3.761h30.537a3.765,3.765,0,0,1,3.761,3.761v36.036a3.765,3.765,0,0,1-3.761,3.761H501.656a3.765,3.765,0,0,1-3.761-3.76Z" transform="translate(-241.954 -152.973)" fill="#9e579d"/>
    <path id="Path_27" data-name="Path 27" d="M508.895,595.719V559.683a3.765,3.765,0,0,1,3.761-3.761h30.537a3.765,3.765,0,0,1,3.761,3.761v36.036a3.765,3.765,0,0,1-3.761,3.761H512.656a3.765,3.765,0,0,1-3.761-3.76Z" transform="translate(-240.886 -152.528)" fill="#6c63ff"/>
    <path id="Path_28" data-name="Path 28" d="M645.784,584.188a9.078,9.078,0,0,1-2.4-13.711l-9.466-69.188,19.718.968,3.1,67.486a9.127,9.127,0,0,1-10.949,14.446Z" transform="translate(-229.646 -151.349)" fill="#a0616a"/>
    <path id="Path_29" data-name="Path 29" d="M656.344,503.179a3.705,3.705,0,0,1-1.505,1.064l-17.72,6.763a3.723,3.723,0,0,1-4.729-1.965l-15.7-35.275a14.739,14.739,0,0,1-.721-10.431,14.337,14.337,0,0,1,10.912-9.782,13.672,13.672,0,0,1,5.89.083,14.28,14.28,0,0,1,10.263,8.921l13.956,36.89A3.73,3.73,0,0,1,656.344,503.179Z" transform="translate(-230.278 -148.985)" fill="#574b90"/>
    <path id="Path_30" data-name="Path 30" d="M264.807,618.06h-12.26L248.1,570.549l16.707.224Z" transform="translate(65.707 -23.142)" fill="#a0616a"/>
    <path id="Path_31" data-name="Path 31" d="M243.79,614.557h23.644v14.887H228.9a14.887,14.887,0,0,1,14.887-14.887Z" transform="translate(65.208 -28.892)" fill="#fff"/>
    <path id="Path_32" data-name="Path 32" d="M321.807,618.06h-12.26l-5.832-47.288h18.094Z" transform="translate(66.077 -23.144)" fill="#a0616a"/>
    <path id="Path_33" data-name="Path 33" d="M300.79,614.557h23.644v14.887H285.9A14.887,14.887,0,0,1,300.79,614.557Z" transform="translate(65.745 -28.892)" fill="#fff"/>
    <path id="Path_34" data-name="Path 34" d="M622.549,736.236l-19.255-1.426a4.506,4.506,0,0,1-4.162-4.271l-4.293-88.731a3.5,3.5,0,0,0-6.925-.533L570,728.683a4.506,4.506,0,0,1-4.767,3.582l-17.406-1.393a4.5,4.5,0,0,1-4.119-4.933l16.148-161.477a4.5,4.5,0,0,1,5.434-3.949L626.7,573.862a4.511,4.511,0,0,1,3.543,4.481l-2.86,153.488a4.5,4.5,0,0,1-4.489,4.416C622.778,736.248,622.664,736.243,622.549,736.236Z" transform="translate(-234.259 -156.064)" fill="#ffd9d6"/>
    <circle id="Ellipse_3" data-name="Ellipse 3" cx="24.561" cy="24.561" r="24.561" transform="translate(348.026 234.22)" fill="#a0616a"/>
    <path id="Path_35" data-name="Path 35" d="M567.6,576.915a21.961,21.961,0,0,1-7.294-16.866c0-35.3,30.556-114.168,31.514-116.629.094-.593.9-.849,5.129-3.706s10.335-3.3,18.139-1.306a4.479,4.479,0,0,1,3.25,3.318l1.452,2.1a3.492,3.492,0,0,0,2.029,2.406c6.293,2.651,26.3,14.878,19.481,60.892-6.332,42.743-8.9,67.881-9.713,76.705a4.491,4.491,0,0,1-4.071,4.065c-3.086.276-8.382.644-14.69.644C598.2,588.536,578.147,586.564,567.6,576.915Z" transform="translate(-232.857 -150.214)" fill="#e7b0da"/>
    <path id="Path_36" data-name="Path 36" d="M538.247,563.837a9.078,9.078,0,0,1,5.649-12.722l30.693-62.725,15.833,11.791-35.034,57.763a9.127,9.127,0,0,1-17.142,5.894Z" transform="translate(-237.165 -150.771)" fill="#a0616a"/>
    <path id="Path_37" data-name="Path 37" d="M592.156,502.454a3.7,3.7,0,0,1-1.843.045l-18.482-4.258A3.723,3.723,0,0,1,569,493.975l6.622-38.038a14.739,14.739,0,0,1,5.214-9.064,14.337,14.337,0,0,1,14.511-2.042,13.674,13.674,0,0,1,4.844,3.351,14.28,14.28,0,0,1,3.551,13.127l-8.967,38.409a3.73,3.73,0,0,1-2.619,2.737Z" transform="translate(-235.246 -148.641)" fill="#574b90"/>
    <path id="Path_38" data-name="Path 38" d="M599.953,427.079a10.584,10.584,0,0,1-2.839-9.387c.856-4.479,1.359-7.41,1.455-8.477h0c.326-3.648-3.361-6.6-7.01-7.07-.141-.018-.26-.031-.359-.039.093.091.193.184.28.267.693.651,1.556,1.462,1.351,2.3-.124.5-.584.861-1.407,1.091-5.706,1.6-10.1.131-13.831-4.616a11.026,11.026,0,0,1-2.105-4.6c-1.336-6.555,2.224-12.143,5.446-15.675,2.657-2.913,6.964-6.449,12.394-6.752,4.223-.236,9.246,2.194,10.749,6.574a8.159,8.159,0,0,1,6.361-3.586,14.662,14.662,0,0,1,8.158,2.269c11.909,6.822,17.027,23.073,11.177,35.488-3.68,7.809-11.654,13.623-20.81,15.172a10.388,10.388,0,0,1-1.735.147,10.115,10.115,0,0,1-7.276-3.1Z" transform="translate(-233.156 -145.973)" fill="#2f2e41"/>
    <path id="Path_39" data-name="Path 39" d="M484.779,765h195a1,1,0,0,0,0-2h-195a1,1,0,1,0,0,2Z" transform="translate(-232.387 -163.892)" fill="#3f3d56"/>
    <text id="Computer_Science_Resources_" data-name="Computer 
Science
Resources 
" transform="translate(-463.333 145.639)" fill="#fff" font-size="110" font-family="TrebuchetMS-Bold, Trebuchet MS" font-weight="700" opacity="0.89"><tspan x="0" y="0">Computer </tspan><tspan x="0" y="180">Science</tspan><tspan x="0" y="360">Resources</tspan><tspan y="360" font-size="50"> </tspan><tspan font-size="50"><tspan x="0" y="540"></tspan></tspan></text>
  </g>
</svg>
